<svg xmlns="http://www.w3.org/2000/svg" viewBox="0 0 1920 945" preserveAspectRatio="xMidYMid" width="1920" height="945" xmlns:xlink="http://www.w3.org/1999/xlink" style="shape-rendering:auto;display:block;background-position-x:0%;background-position-y:0%;background-size:auto;background-origin:padding-box;background-clip:border-box;background:scroll rgb(255, 255, 255) none  repeat;width:1920px;height:945px;;animation:none"><g style="transform:matrix(1, 0, 0, -1, 0, 945);;animation:none"><defs><linearGradient y2="1" y1="0" x2="0" x1="0" id="lg-bk-jg6mq6wfbyj"><stop offset="0" stop-opacity="0" stop-color="#1f2937"></stop>

  
<stop offset="0.925" stop-opacity="1" stop-color="#1f2937"></stop></linearGradient>


<linearGradient y2="1" y1="0" x2="0" x1="0" id="lg-oersv4ab58c"><stop offset="0" stop-color="#1f2937"></stop>

  
<stop offset="1" stop-color="#1f2937"></stop>

  
<stop offset="1" stop-color="#1f2937"></stop></linearGradient></defs>


<rect fill="url(#lg-bk-jg6mq6wfbyj)" height="945" width="1920" y="0" x="0" style="fill:url('#lg-bk-jg6mq6wfbyj');;animation:none"></rect>
<g transform="matrix(1,0,0,1,0,0)" style="transform:matrix(1, 0, 0, 1, 0, 0);;animation:none"><path opacity="0.47" fill="url(#lg-oersv4ab58c)" d="M0 699.3
C960 699.3 960 868.833 1920 868.833
C2880 868.833 2880 699.3 3840 699.3
C4800 699.3 4800 868.833 5760 868.833
C6720 868.833 6720 699.3 7680 699.3
L7680 945 L0 945 Z" transform="matrix(1,0,0,1,-3840,0)" style="fill:url('#lg-oersv4ab58c');transform:matrix(1, 0, 0, 1, -3840, 0);opacity:0.47;;animation:none"></path></g>
<g transform="matrix(1,0,0,1,0,2.688610792160034)" style="transform:matrix(1, 0, 0, 1, 0, 2.68861);;animation:none"><path opacity="0.47" fill="url(#lg-oersv4ab58c)" d="M0 699.3
C960 699.3 960 868.833 1920 868.833
C2880 868.833 2880 699.3 3840 699.3
C4800 699.3 4800 868.833 5760 868.833
C6720 868.833 6720 699.3 7680 699.3
L7680 945 L0 945 Z" transform="matrix(1,0,0,1,-3833.600341796875,0)" style="fill:url('#lg-oersv4ab58c');transform:matrix(1, 0, 0, 1, -3833.6, 0);opacity:0.47;;animation:none"></path></g>
<g transform="matrix(1,0,0,1,0,7.311387062072754)" style="transform:matrix(1, 0, 0, 1, 0, 7.31139);;animation:none"><path opacity="0.47" fill="url(#lg-oersv4ab58c)" d="M0 699.3
C960 699.3 960 868.833 1920 868.833
C2880 868.833 2880 699.3 3840 699.3
C4800 699.3 4800 868.833 5760 868.833
C6720 868.833 6720 699.3 7680 699.3
L7680 945 L0 945 Z" transform="matrix(1,0,0,1,-3827.2001953125,0)" style="fill:url('#lg-oersv4ab58c');transform:matrix(1, 0, 0, 1, -3827.2, 0);opacity:0.47;;animation:none"></path></g>
<g transform="matrix(1,0,0,1,0,10)" style="transform:matrix(1, 0, 0, 1, 0, 10);;animation:none"><path opacity="0.47" fill="url(#lg-oersv4ab58c)" d="M0 699.3
C960 699.3 960 868.833 1920 868.833
C2880 868.833 2880 699.3 3840 699.3
C4800 699.3 4800 868.833 5760 868.833
C6720 868.833 6720 699.3 7680 699.3
L7680 945 L0 945 Z" transform="matrix(1,0,0,1,-3820.80029296875,0)" style="fill:url('#lg-oersv4ab58c');transform:matrix(1, 0, 0, 1, -3820.8, 0);opacity:0.47;;animation:none"></path></g>
<g transform="matrix(1,0,0,1,0,7.3113884925842285)" style="transform:matrix(1, 0, 0, 1, 0, 7.31139);;animation:none"><path opacity="0.47" fill="url(#lg-oersv4ab58c)" d="M0 699.3
C960 699.3 960 868.833 1920 868.833
C2880 868.833 2880 699.3 3840 699.3
C4800 699.3 4800 868.833 5760 868.833
C6720 868.833 6720 699.3 7680 699.3
L7680 945 L0 945 Z" transform="matrix(1,0,0,1,-3814.400146484375,0)" style="fill:url('#lg-oersv4ab58c');transform:matrix(1, 0, 0, 1, -3814.4, 0);opacity:0.47;;animation:none"></path></g>
<g transform="matrix(1,0,0,1,0,2.688612937927246)" style="transform:matrix(1, 0, 0, 1, 0, 2.68861);;animation:none"><path opacity="0.47" fill="url(#lg-oersv4ab58c)" d="M0 699.3
C960 699.3 960 868.833 1920 868.833
C2880 868.833 2880 699.3 3840 699.3
C4800 699.3 4800 868.833 5760 868.833
C6720 868.833 6720 699.3 7680 699.3
L7680 945 L0 945 Z" transform="matrix(1,0,0,1,-3808.000244140625,0)" style="fill:url('#lg-oersv4ab58c');transform:matrix(1, 0, 0, 1, -3808, 0);opacity:0.47;;animation:none"></path></g>
<g></g></g><!-- [ldio] generated by https://loading.io --></svg>